<?xml version="1.0" encoding="UTF-8" standalone="no"?>
<!DOCTYPE svg PUBLIC "-//W3C//DTD SVG 1.1//EN" "http://www.w3.org/Graphics/SVG/1.1/DTD/svg11.dtd">
<svg width="100%" height="100%" viewBox="0 0 247 265" version="1.1" xmlns="http://www.w3.org/2000/svg" xmlns:xlink="http://www.w3.org/1999/xlink" xml:space="preserve" xmlns:serif="http://www.serif.com/" style="fill-rule:evenodd;clip-rule:evenodd;stroke-linejoin:round;stroke-miterlimit:2;">
    <g transform="matrix(0.642077,0,0,0.836661,-356.078,-1266.25)">
        <rect id="artboard1" x="554.572" y="1513.46" width="383.15" height="315.614" style="fill:none;"/>
        <g id="artboard11" serif:id="artboard1">
            <g transform="matrix(1.55745,0,0,1.19523,-521.838,-356.539)">
                <g transform="matrix(0,-4.16667,-4.16667,0,815.261,1577.07)">
                    <path d="M-28.347,-28.346C-45.199,-28.346 -58.86,-15.655 -58.86,-0C-58.86,15.656 -45.199,28.347 -28.347,28.347C-11.495,28.347 2.167,15.656 2.167,-0C2.167,-15.655 -11.495,-28.346 -28.347,-28.346" style="fill:rgb(34,24,21);fill-rule:nonzero;"/>
                </g>
                <g transform="matrix(0,-4.16667,-4.16667,0,815.259,1578.25)">
                    <path d="M-28.063,-28.063C-44.759,-28.063 -58.293,-15.499 -58.293,-0C-58.293,15.498 -44.759,28.063 -28.063,28.063C-11.367,28.063 2.167,15.498 2.167,-0C2.167,-15.499 -11.367,-28.063 -28.063,-28.063" style="fill:white;fill-rule:nonzero;"/>
                </g>
                <g transform="matrix(4.16667,0,0,4.16667,815.259,1594.16)">
                    <path d="M0,48.488C-12.439,48.488 -22.522,37.634 -22.522,24.243C-22.522,10.855 -12.439,-0.001 0,-0.001C12.438,-0.001 22.523,10.855 22.523,24.243C22.523,37.634 12.438,48.488 0,48.488M0,-6.269C-15.655,-6.269 -28.346,7.392 -28.346,24.243C-28.346,41.096 -15.655,54.757 0,54.757C15.655,54.757 28.346,41.096 28.346,24.243C28.346,7.392 15.655,-6.269 0,-6.269" style="fill:rgb(35,25,22);fill-rule:nonzero;"/>
                </g>
                <g transform="matrix(4.16667,0,0,4.16667,751.225,1785.13)">
                    <path d="M0,0.539C-0.354,0.276 -0.437,0.388 -0.485,0.269C-0.54,0.101 0.082,-0.401 0.091,-0.395C0.125,-0.368 -0.025,-0.481 0.678,0.042C1.085,0.345 1.154,0.222 1.184,0.312C1.244,0.477 0.602,0.986 0.597,0.982C0.578,0.968 0.637,1.02 0,0.539" style="fill:white;fill-rule:nonzero;"/>
                </g>
                <g transform="matrix(4.16667,0,0,4.16667,780.703,1803.75)">
                    <path d="M0,-2.147C-0.163,-1.732 -0.413,-1.97 -0.449,-1.993C-0.538,-2.061 -0.637,-1.844 -0.686,-1.736L-1.604,0.275C-1.917,0.96 -2.662,0.979 -3.33,0.667C-4.29,0.222 -4.147,-0.424 -4.083,-0.623C-3.785,-1.494 -2.537,-1.027 -3.101,-0.229C-3.291,0.043 -3.372,0.103 -3.121,0.21C-2.69,0.387 -2.477,-0.11 -2.47,-0.126L-1.561,-2.148C-1.519,-2.24 -1.432,-2.386 -1.485,-2.445C-1.588,-2.54 -1.962,-2.504 -1.721,-2.918C-1.6,-3.126 0.087,-2.369 0,-2.147" style="fill:white;fill-rule:nonzero;"/>
                </g>
                <g transform="matrix(4.16667,0,0,4.16667,781.663,1801.72)">
                    <path d="M0,2.528C0.003,2.725 0.018,2.683 0.624,2.812C1.338,2.963 1.517,3.046 1.564,2.883C1.628,2.58 1.536,2.508 1.396,2.479C1.185,2.434 1.281,2.277 1.3,2.249L1.483,1.982C1.541,1.886 1.661,1.917 1.661,1.917C2.403,2.087 2.681,2.095 2.712,2.274C2.727,2.354 2.735,2.438 2.735,2.438C2.813,2.964 2.437,2.439 2.39,3.02C2.371,3.232 2.417,3.192 3.423,3.405C3.98,3.522 4.129,3.598 4.175,3.41C4.312,2.912 3.84,3.079 3.813,2.94C3.542,1.253 3.518,1.127 3.518,1.127C3.178,-0.797 3.146,-0.733 2.73,-0.891C2.306,-1.07 2.294,-0.747 2.275,-0.478C2.26,-0.373 2.34,-0.184 2.24,-0.04L0.768,2.13C0.706,2.244 0.561,2.27 0.489,2.281C0.419,2.285 0.009,2.097 0,2.528M1.92,1.47C1.902,1.466 1.853,1.43 1.91,1.341L2.305,0.756C2.378,0.651 2.453,0.571 2.468,0.734C2.535,1.11 2.606,1.521 2.606,1.521C2.616,1.649 2.356,1.563 1.92,1.47" style="fill:white;fill-rule:nonzero;"/>
                </g>
                <g transform="matrix(4.16667,0,0,4.16667,816.712,1803.75)">
                    <path d="M0,2.918C-0.099,2.876 -0.099,2.828 -0.099,2.7L-0.099,1.673C-0.085,1.68 1.636,1.788 1.61,0.585C1.604,-0.303 0.809,-0.551 0.392,-0.544C-0.364,-0.539 -0.669,-0.484 -0.887,-0.478C-1.026,-0.478 -1.603,-0.568 -1.629,-0.376C-1.722,0.156 -1.358,-0.066 -1.232,-0.037C-1.139,-0.001 -1.166,0.193 -1.166,0.277C-1.166,1.456 -1.159,1.438 -1.166,2.683C-1.166,2.876 -1.152,2.894 -1.245,2.924C-1.318,2.943 -1.735,2.833 -1.603,3.329C-1.576,3.438 0.378,3.486 0.392,3.269C0.437,2.797 0.106,2.966 0,2.918M-0.099,-0.037C0.192,-0.066 0.411,0.06 0.411,0.598C0.411,1.227 0.271,1.402 -0.099,1.371C-0.105,1.371 -0.099,-0.037 -0.099,-0.037" style="fill:white;fill-rule:nonzero;"/>
                </g>
                <g transform="matrix(4.16667,0,0,4.16667,829.287,1799.89)">
                    <path d="M0,4.155C0.085,4.332 0.081,4.288 0.669,4.148C1.362,3.984 1.555,3.983 1.527,3.816C1.455,3.516 1.345,3.491 1.21,3.524C1.004,3.572 1.023,3.389 1.026,3.356L1.076,3.039C1.086,2.928 1.205,2.906 1.205,2.906C1.932,2.747 2.179,2.636 2.282,2.783C2.328,2.849 2.37,2.922 2.37,2.922C2.662,3.362 2.108,3.048 2.313,3.592C2.384,3.791 2.41,3.735 3.384,3.502C3.926,3.373 4.089,3.379 4.05,3.191C3.961,2.683 3.614,3.033 3.531,2.919C2.584,1.515 2.508,1.411 2.508,1.411C1.397,-0.177 1.394,-0.107 0.962,-0.073C0.513,-0.056 0.639,0.239 0.736,0.49C0.766,0.591 0.917,0.727 0.89,0.899L0.508,3.474C0.503,3.602 0.385,3.687 0.326,3.727C0.266,3.761 -0.174,3.763 0,4.155M1.245,2.394C1.228,2.398 1.169,2.386 1.181,2.281L1.282,1.589C1.303,1.463 1.334,1.36 1.417,1.5C1.634,1.811 1.87,2.149 1.87,2.149C1.934,2.262 1.667,2.293 1.245,2.394" style="fill:white;fill-rule:nonzero;"/>
                </g>
                <g transform="matrix(4.16667,0,0,4.16667,867.177,1797.44)">
                    <path d="M0,1.2C0.151,1.48 0.351,1.793 0.212,1.883C0.167,1.916 -0.062,1.908 -0.062,1.908L-3.104,0.762C-3.104,0.762 -3.292,0.663 -3.187,0.836C-3.187,0.836 -3.057,1.104 -2.321,2.471C-2.256,2.59 -2.018,2.078 -1.774,2.629C-1.695,2.786 -2.783,3.471 -2.929,3.203C-3.171,2.752 -2.851,2.847 -2.708,2.695C-2.708,2.695 -2.836,2.455 -4.031,0.232C-4.113,0.078 -4.299,-0.052 -4.362,-0.064C-4.415,-0.075 -4.562,0.211 -4.77,-0.251C-4.872,-0.473 -4.287,-0.711 -4.213,-0.751C-4.119,-0.816 -3.906,-0.693 -0.852,0.57C-0.852,0.57 -0.888,0.505 -1.909,-1.398C-1.909,-1.398 -2.244,-1.111 -2.456,-1.542C-2.558,-1.732 -1.468,-2.271 -1.388,-2.123C-1.165,-1.706 -1.512,-1.612 -1.512,-1.612C-0.026,1.153 0,1.2 0,1.2" style="fill:white;fill-rule:nonzero;"/>
                </g>
                <g transform="matrix(4.16667,0,0,4.16667,881.138,1783.94)">
                    <path d="M0,0.839C-0.375,1.07 -0.304,1.189 -0.43,1.19C-0.607,1.179 -0.845,0.416 -0.834,0.41C-0.798,0.387 -0.957,0.485 -0.213,0.024C0.221,-0.242 0.131,-0.351 0.227,-0.346C0.4,-0.34 0.638,0.445 0.632,0.448C0.611,0.461 0.681,0.424 0,0.839" style="fill:white;fill-rule:nonzero;"/>
                </g>
                <g transform="matrix(4.16667,0,0,4.16667,732.666,1776.12)">
                    <path d="M0,-4.918C0.247,-5.091 0.518,-5.32 0.635,-5.176C0.677,-5.126 0.717,-4.88 0.717,-4.88L0.204,-1.554C0.204,-1.554 0.145,-1.348 0.295,-1.469C0.295,-1.469 0.534,-1.621 1.742,-2.47C1.848,-2.544 1.29,-2.78 1.787,-3.066C1.927,-3.157 2.833,-2.012 2.597,-1.845C2.197,-1.565 2.227,-1.915 2.044,-2.063C2.044,-2.063 1.834,-1.915 -0.131,-0.534C-0.268,-0.439 -0.359,-0.233 -0.357,-0.163C-0.357,-0.108 -0.042,0.039 -0.458,0.284C-0.659,0.402 -1.016,-0.218 -1.071,-0.298C-1.155,-0.396 -1.078,-0.63 -0.451,-3.973C-0.451,-3.973 -0.509,-3.933 -2.191,-2.753C-2.191,-2.753 -1.837,-2.404 -2.221,-2.158C-2.389,-2.04 -3.151,-3.191 -3.02,-3.285C-2.652,-3.543 -2.486,-3.172 -2.486,-3.172C-0.042,-4.888 0,-4.918 0,-4.918" style="fill:white;fill-rule:nonzero;"/>
                </g>
                <g transform="matrix(4.16667,0,0,4.16667,732.082,1736.86)">
                    <path d="M0,3.862C0.163,3.739 0.12,3.752 -0.142,3.166C-0.451,2.474 -0.491,2.274 -0.655,2.333C-0.947,2.464 -0.951,2.585 -0.89,2.719C-0.798,2.923 -0.989,2.94 -1.023,2.94L-1.357,2.949C-1.473,2.958 -1.519,2.839 -1.519,2.839C-1.829,2.111 -1.991,1.874 -1.861,1.739C-1.805,1.679 -1.738,1.621 -1.738,1.621C-1.349,1.235 -1.557,1.871 -1.043,1.557C-0.854,1.444 -0.917,1.43 -1.351,0.457C-1.592,-0.083 -1.619,-0.254 -1.803,-0.178C-2.304,0.01 -1.876,0.304 -1.976,0.412C-3.218,1.662 -3.308,1.759 -3.308,1.759C-4.706,3.213 -4.634,3.201 -4.512,3.646C-4.403,4.111 -4.128,3.926 -3.892,3.777C-3.794,3.727 -3.686,3.546 -3.504,3.541L-0.798,3.459C-0.666,3.442 -0.555,3.548 -0.503,3.602C-0.457,3.658 -0.365,4.116 0,3.862M-2.05,2.892C-2.042,2.91 -2.042,2.973 -2.152,2.98L-2.88,3.003C-3.013,3.006 -3.124,2.992 -2.998,2.879C-2.725,2.595 -2.426,2.287 -2.426,2.287C-2.325,2.199 -2.239,2.47 -2.05,2.892" style="fill:white;fill-rule:nonzero;"/>
                </g>
                <g transform="matrix(4.16667,0,0,4.16667,707.487,1726.84)">
                    <path d="M0,2.541L-0.544,0.52C-0.546,0.514 -0.744,0.101 -0.773,0.07C-0.88,-0.035 -0.003,-0.504 0.277,-0.579C0.451,-0.626 0.501,-0.167 0.462,-0.137C-0.117,0.305 -0.031,0.502 0.073,0.839C0.085,0.882 0.145,0.88 0.255,0.849L2.786,0.169C2.867,0.147 3.021,0.106 3.029,-0.016C3.029,-0.116 2.821,-0.22 3.276,-0.429C3.471,-0.522 4.005,1.363 3.767,1.441C3.304,1.598 3.417,1.276 3.333,1.165C3.265,1.083 3.134,1.139 3.053,1.161L0.504,1.847C0.387,1.878 0.354,1.88 0.372,1.949C0.454,2.299 0.474,2.499 1.197,2.592C1.373,2.603 1.422,3.01 1.255,3.054C0.958,3.135 -0.025,3.167 0.024,3.027C0.024,3.027 0.017,2.603 0,2.541" style="fill:white;fill-rule:nonzero;"/>
                </g>
                <g transform="matrix(4.16667,0,0,4.16667,702.468,1720.95)">
                    <path d="M0,-1.495C0.461,-1.58 0.369,-1.267 0.413,-1.138C0.432,-1.095 0.543,-1.084 0.69,-1.104L3.164,-1.447C3.323,-1.469 3.521,-1.496 3.527,-1.588C3.537,-1.706 3.356,-2.024 3.847,-2.04C4.041,-2.041 4.349,-0.048 4.123,0.003C3.648,0.127 3.729,-0.312 3.694,-0.379C3.644,-0.456 3.545,-0.43 3.328,-0.4L0.815,-0.053C0.714,-0.038 0.578,-0.033 0.562,0.034C0.549,0.127 0.801,0.501 0.28,0.527C0.049,0.546 -0.228,-1.458 0,-1.495" style="fill:white;fill-rule:nonzero;"/>
                </g>
                <g transform="matrix(4.16667,0,0,4.16667,717.474,1702.81)">
                    <path d="M0,-0.126C0.013,-2.81 -4.232,-2.837 -4.212,-0.089C-4.193,2.711 -0.012,2.648 0,-0.126M-3.663,0.363C-4.045,-0.88 -0.904,-1.802 -0.543,-0.603C-0.162,0.659 -3.308,1.561 -3.663,0.363" style="fill:white;fill-rule:nonzero;"/>
                </g>
                <g transform="matrix(4.16667,0,0,4.16667,715.757,1689.94)">
                    <path d="M0,-3.287C0.3,-3.256 0.654,-3.251 0.648,-3.064C0.648,-3 0.517,-2.788 0.517,-2.788L-2.054,-0.616C-2.054,-0.616 -2.235,-0.498 -2.042,-0.491C-2.042,-0.491 -1.762,-0.449 -0.292,-0.297C-0.165,-0.283 -0.431,-0.826 0.132,-0.717C0.297,-0.693 0.229,0.766 -0.058,0.735C-0.543,0.686 -0.292,0.44 -0.333,0.21C-0.333,0.21 -0.588,0.183 -2.977,-0.065C-3.142,-0.084 -3.346,0.012 -3.391,0.065C-3.427,0.107 -3.286,0.424 -3.761,0.336C-3.989,0.293 -3.851,-0.409 -3.841,-0.505C-3.84,-0.634 -3.627,-0.76 -0.96,-2.87C-0.96,-2.87 -1.03,-2.878 -3.074,-3.091C-3.074,-3.091 -3.035,-2.596 -3.486,-2.663C-3.691,-2.684 -3.51,-4.053 -3.35,-4.036C-2.903,-3.99 -3.021,-3.602 -3.021,-3.602C-0.051,-3.292 0,-3.287 0,-3.287" style="fill:white;fill-rule:nonzero;"/>
                </g>
                <g transform="matrix(4.16667,0,0,4.16667,717.727,1655.84)">
                    <path d="M0,4.339C0.202,4.365 0.163,4.344 0.385,3.741C0.648,3.031 0.759,2.86 0.601,2.787C0.3,2.676 0.213,2.761 0.163,2.9C0.084,3.111 -0.062,2.988 -0.088,2.964L-0.332,2.737C-0.421,2.664 -0.371,2.545 -0.371,2.545C-0.085,1.808 -0.036,1.526 0.151,1.52C0.235,1.516 0.322,1.521 0.322,1.521C0.871,1.518 0.278,1.826 0.865,1.962C1.079,2.012 1.044,1.959 1.413,0.958C1.618,0.405 1.718,0.264 1.533,0.188C1.044,-0.026 1.144,0.483 0.997,0.49C-0.765,0.517 -0.896,0.522 -0.896,0.522C-2.913,0.586 -2.853,0.628 -3.077,1.031C-3.324,1.44 -2.997,1.5 -2.725,1.559C-2.62,1.591 -2.415,1.537 -2.283,1.661L-0.29,3.492C-0.183,3.572 -0.177,3.726 -0.177,3.801C-0.185,3.874 -0.439,4.266 0,4.339M-0.789,2.213C-0.795,2.231 -0.84,2.276 -0.922,2.204L-1.46,1.712C-1.556,1.621 -1.627,1.534 -1.458,1.541C-1.064,1.529 -0.634,1.516 -0.634,1.516C-0.501,1.525 -0.628,1.779 -0.789,2.213" style="fill:white;fill-rule:nonzero;"/>
                </g>
                <g transform="matrix(4.16667,0,0,4.16667,714.339,1651.37)">
                    <path d="M0,-3.014C0.427,-2.821 0.092,-2.578 0.108,-2.487C0.132,-2.384 0.27,-2.33 0.27,-2.33L2.583,-1.288C2.699,-1.236 2.923,-1.17 2.942,-1.211C3.357,-2.102 3.273,-1.949 3.244,-2.069C3.061,-2.651 2.675,-2.838 2.747,-3.032C2.903,-3.426 4.094,-2.411 4.039,-2.239C3.985,-1.996 3.841,-1.941 3.778,-1.8L2.873,0.209C2.826,0.314 2.746,0.412 2.627,0.379C2.192,0.267 2.393,0.069 2.446,-0.111C2.474,-0.218 2.254,-0.324 2.119,-0.384L-0.118,-1.392C-0.118,-1.392 -0.303,-1.482 -0.367,-1.433C-0.464,-1.343 -0.405,-0.894 -0.838,-1.153C-1.068,-1.298 -0.234,-3.119 0,-3.014" style="fill:white;fill-rule:nonzero;"/>
                </g>
                <g transform="matrix(4.16667,0,0,4.16667,732.212,1627.42)">
                    <path d="M0,-3.948C0.388,-3.684 0.103,-3.528 0.043,-3.404C0.027,-3.361 0.099,-3.275 0.218,-3.186L2.221,-1.695C2.35,-1.599 2.51,-1.48 2.579,-1.54C2.668,-1.618 2.764,-1.971 3.124,-1.639C3.263,-1.503 2.085,0.133 1.889,0.01C1.462,-0.235 1.829,-0.49 1.851,-0.562C1.869,-0.652 1.779,-0.702 1.604,-0.833L-0.431,-2.348C-0.513,-2.41 -0.613,-2.5 -0.672,-2.464C-0.747,-2.407 -0.829,-1.964 -1.219,-2.311C-1.397,-2.459 -0.188,-4.081 0,-3.948" style="fill:white;fill-rule:nonzero;"/>
                </g>
                <g transform="matrix(4.16667,0,0,4.16667,756.812,1607.02)">
                    <path d="M0,-0.495C0.205,-0.286 0.465,-0.065 0.35,0.074C0.311,0.123 0.088,0.204 0.088,0.204L-3.109,0.284C-3.109,0.284 -3.313,0.262 -3.173,0.386C-3.173,0.386 -2.99,0.59 -1.989,1.611C-1.901,1.699 -1.777,1.119 -1.424,1.55C-1.315,1.67 -2.229,2.743 -2.424,2.543C-2.755,2.207 -2.423,2.173 -2.318,1.973C-2.318,1.973 -2.492,1.795 -4.121,0.136C-4.234,0.021 -4.441,-0.032 -4.506,-0.017C-4.559,-0.009 -4.641,0.321 -4.942,-0.039C-5.086,-0.211 -4.568,-0.664 -4.504,-0.731C-4.427,-0.829 -4.194,-0.794 -0.961,-0.767C-0.961,-0.767 -1.009,-0.816 -2.403,-2.235C-2.403,-2.235 -2.667,-1.833 -2.963,-2.162C-3.103,-2.304 -2.157,-3.238 -2.048,-3.127C-1.744,-2.816 -2.061,-2.593 -2.061,-2.593C-0.036,-0.53 0,-0.495 0,-0.495" style="fill:white;fill-rule:nonzero;"/>
                </g>
                <g transform="matrix(4.16667,0,0,4.16667,766.237,1590.12)">
                    <path d="M0,2.797C0.247,2.693 0.265,2.455 0.16,2.209C-0.003,1.807 -0.327,1.786 -0.796,1.94C-1.541,2.179 -2.073,2.011 -2.442,1.27C-2.724,0.715 -2.567,0.029 -1.934,-0.375C-1.76,-0.485 -1.666,-0.518 -1.428,-0.556C-1.307,-0.582 -1.195,-0.681 -1.04,-0.762C-0.762,-0.888 0.055,-0.277 -0.164,-0.061C-0.335,0.11 -0.742,0.151 -1.061,0.01C-1.411,-0.14 -1.491,-0.063 -1.654,0.039C-1.744,0.101 -1.791,0.318 -1.679,0.599C-1.527,1.008 -0.98,0.934 -0.679,0.783C-0.088,0.486 0.46,0.564 0.857,1.118C1.396,1.87 1.137,2.657 0.359,3.159C-0.454,3.685 -0.688,3.557 -0.778,3.516C-1.014,3.419 -1.718,2.664 -1.553,2.552C-1.106,2.251 -0.947,3.219 0,2.797" style="fill:white;fill-rule:nonzero;"/>
                </g>
                <g transform="matrix(4.16667,0,0,4.16667,771.029,1592.71)">
                    <path d="M0,-2.484L1.909,-3.344C1.915,-3.348 2.29,-3.608 2.317,-3.641C2.402,-3.765 3.006,-2.973 3.124,-2.709C3.198,-2.546 2.753,-2.423 2.718,-2.456C2.189,-2.957 2.008,-2.84 1.692,-2.684C1.651,-2.665 1.664,-2.608 1.71,-2.503L2.787,-0.113C2.821,-0.037 2.888,0.109 3.008,0.097C3.107,0.081 3.176,-0.141 3.456,0.275C3.578,0.453 1.803,1.281 1.688,1.058C1.458,0.627 1.795,0.686 1.891,0.586C1.961,0.506 1.885,0.385 1.85,0.308L0.766,-2.098C0.716,-2.208 0.708,-2.24 0.644,-2.212C0.311,-2.076 0.116,-2.023 0.142,-1.295C0.158,-1.119 -0.235,-1.005 -0.306,-1.163C-0.433,-1.444 -0.621,-2.409 -0.476,-2.383C-0.476,-2.383 -0.059,-2.458 0,-2.484" style="fill:white;fill-rule:nonzero;"/>
                </g>
                <g transform="matrix(4.16667,0,0,4.16667,794.434,1593.04)">
                    <path d="M0,-4.298C0.152,-3.855 -0.169,-3.899 -0.292,-3.836C-0.33,-3.811 -0.324,-3.699 -0.282,-3.558L0.432,-1.163C0.478,-1.01 0.534,-0.819 0.626,-0.826C0.744,-0.835 1.032,-1.061 1.122,-0.579C1.152,-0.386 -0.771,0.22 -0.855,0.004C-1.05,-0.447 -0.604,-0.433 -0.543,-0.478C-0.474,-0.539 -0.516,-0.633 -0.578,-0.843L-1.303,-3.273C-1.332,-3.372 -1.358,-3.505 -1.427,-3.511C-1.521,-3.51 -1.852,-3.204 -1.957,-3.715C-2.01,-3.94 -0.072,-4.518 0,-4.298" style="fill:white;fill-rule:nonzero;"/>
                </g>
                <g transform="matrix(4.16667,0,0,4.16667,800.869,1588.83)">
                    <path d="M0,-3.464L2.063,-3.817C2.069,-3.818 2.499,-3.976 2.533,-4.002C2.646,-4.099 3.032,-3.182 3.081,-2.896C3.111,-2.719 2.65,-2.712 2.623,-2.754C2.237,-3.371 2.034,-3.304 1.688,-3.231C1.644,-3.224 1.641,-3.164 1.66,-3.05L2.102,-0.468C2.117,-0.386 2.144,-0.228 2.264,-0.21C2.364,-0.201 2.486,-0.398 2.652,0.076C2.725,0.278 0.8,0.635 0.745,0.39C0.631,-0.086 0.941,0.057 1.06,-0.016C1.146,-0.076 1.104,-0.212 1.09,-0.295L0.644,-2.896C0.623,-3.016 0.624,-3.05 0.555,-3.037C0.198,-2.989 -0.003,-2.987 -0.161,-2.276C-0.19,-2.102 -0.598,-2.09 -0.628,-2.261C-0.68,-2.565 -0.62,-3.546 -0.486,-3.484C-0.486,-3.484 -0.064,-3.453 0,-3.464" style="fill:white;fill-rule:nonzero;"/>
                </g>
                <g transform="matrix(4.16667,0,0,4.16667,821.153,1579.81)">
                    <path d="M0,0.982C-0.114,1.699 0.354,1.858 0.862,1.939C1.7,2.067 1.893,1.799 1.973,1.298C1.973,1.298 2.318,-0.818 2.312,-0.82C2.152,-0.871 1.673,-0.805 1.803,-1.252C1.863,-1.464 3.365,-1.223 3.352,-1.011C3.343,-0.589 3.208,-0.689 2.826,-0.737C2.813,-0.739 2.479,1.425 2.479,1.425C2.384,2.021 1.96,2.877 0.496,2.635C-1.095,2.38 -1.148,1.611 -1.023,0.837C-1.023,0.837 -0.691,-1.236 -0.681,-1.299C-0.669,-1.369 -1.256,-1.196 -1.032,-1.707C-0.949,-1.895 0.868,-1.63 0.813,-1.411C0.673,-0.9 0.352,-1.205 0.34,-1.136C0.324,-1.073 -0.005,0.981 0,0.982" style="fill:white;fill-rule:nonzero;"/>
                </g>
                <g transform="matrix(4.16667,0,0,4.16667,842.124,1594.01)">
                    <path d="M0,-4.22L1.952,-3.463C1.957,-3.46 2.405,-3.375 2.449,-3.38C2.597,-3.405 2.456,-2.42 2.352,-2.15C2.286,-1.983 1.887,-2.213 1.885,-2.263C1.871,-2.991 1.663,-3.037 1.328,-3.153C1.286,-3.17 1.255,-3.12 1.211,-3.013L0.265,-0.57C0.233,-0.491 0.176,-0.343 0.27,-0.265C0.351,-0.206 0.558,-0.312 0.456,0.179C0.414,0.39 -1.421,-0.294 -1.342,-0.532C-1.194,-0.999 -1.002,-0.717 -0.863,-0.719C-0.757,-0.725 -0.726,-0.864 -0.693,-0.942L0.261,-3.403C0.305,-3.515 0.322,-3.544 0.256,-3.569C-0.073,-3.711 -0.247,-3.813 -0.75,-3.285C-0.863,-3.15 -1.22,-3.35 -1.156,-3.511C-1.046,-3.8 -0.488,-4.61 -0.406,-4.488C-0.406,-4.488 -0.062,-4.243 0,-4.22" style="fill:white;fill-rule:nonzero;"/>
                </g>
                <g transform="matrix(4.16667,0,0,4.16667,851.784,1589)">
                    <path d="M0,1.612C0.056,1.604 0.19,1.399 0.241,1.302C0.629,0.555 0.72,0.422 1.242,-0.624C1.324,-0.783 1.472,-1.025 1.384,-1.078C1.324,-1.116 0.979,-1.108 1.236,-1.575C1.336,-1.725 1.591,-1.491 3.418,-0.578C3.691,-0.436 3.773,-0.553 3.943,-0.42C4.168,-0.254 3.782,0.64 3.56,0.582C3.327,0.517 3.495,0.026 3.237,-0.107C3.105,-0.175 2.673,-0.4 2.412,-0.536C2.337,-0.575 2.335,-0.526 1.836,0.431C1.836,0.431 1.881,0.469 2.337,0.692C2.531,0.792 2.604,0.093 2.855,0.223C3.23,0.41 3.008,0.822 2.807,1.211C2.613,1.58 2.365,2.073 2.043,1.87C1.759,1.694 2.304,1.274 2.094,1.164C1.854,1.04 1.596,0.907 1.596,0.907L0.969,2.115C0.991,2.127 1.373,2.311 1.561,2.423C2.366,2.893 2.477,1.828 2.871,2.171C3.122,2.387 2.136,3.337 2.034,3.312C1.812,3.262 1.889,3.157 1.598,3.007C-0.209,2.068 -0.596,1.953 -0.512,1.787C-0.23,1.246 -0.212,1.616 0,1.612" style="fill:white;fill-rule:nonzero;"/>
                </g>
                <g transform="matrix(4.16667,0,0,4.16667,878.399,1603.51)">
                    <path d="M0,3.023C1.862,4.956 4.925,2.015 2.994,0.06C1.026,-1.933 -1.926,1.026 0,3.023M2.284,0.118C3.425,0.744 1.816,3.593 0.722,2.987C-0.432,2.349 1.194,-0.492 2.284,0.118" style="fill:white;fill-rule:nonzero;"/>
                </g>
                <g transform="matrix(4.16667,0,0,4.16667,888.442,1619.18)">
                    <path d="M0,0.941C0.044,0.963 0.235,0.839 0.348,0.747C1.16,0.076 1.22,0.027 2.043,-0.652C2.186,-0.77 2.376,-0.994 2.369,-1.013C2.339,-1.079 1.983,-1.269 2.457,-1.533C2.572,-1.604 2.495,-1.607 4.055,0.245C4.168,0.384 4.324,0.381 4.435,0.523C4.533,0.683 4.388,0.911 4.143,1.179C4.121,1.204 3.634,1.572 3.548,1.518C3.15,1.298 3.955,0.919 3.496,0.364C3.406,0.255 3.589,0.497 3.145,-0.062C3.075,-0.146 2.87,-0.011 2.751,0.088C1.88,0.816 2.084,0.639 2.078,0.643C2.078,0.643 2.383,1.023 2.389,1.019C2.546,0.907 2.865,0.527 3.082,0.831C3.247,1.052 2.804,1.393 2.586,1.572C2.299,1.809 1.861,2.187 1.675,1.991C1.395,1.713 1.857,1.516 1.998,1.342L1.677,0.974C1.677,0.974 1.765,0.9 0.908,1.606C0.825,1.677 0.714,1.785 0.729,1.822C0.77,1.913 1.054,2.054 0.734,2.384C0.586,2.548 -0.689,1.052 -0.493,0.857C-0.161,0.542 -0.107,0.88 0,0.941" style="fill:white;fill-rule:nonzero;"/>
                </g>
                <g transform="matrix(4.16667,0,0,4.16667,907.404,1653.9)">
                    <path d="M0,-3.505C1.06,-3.917 2.178,-3.65 2.65,-2.511C2.931,-1.835 2.796,-1.675 2.812,-1.619C2.831,-1.557 2.882,-1.467 2.939,-1.38C3.052,-1.176 2.179,-0.244 1.704,-0.785C1.47,-1.034 1.452,-1.228 1.62,-1.36C1.848,-1.532 2.167,-1.818 1.99,-2.196C1.684,-2.847 0.991,-2.839 0.436,-2.518C-0.421,-2.023 -0.491,-1.167 -0.346,-0.983C-0.235,-0.821 -0.179,-0.67 0.007,-0.74C0.329,-0.867 0.217,-0.855 0.296,-0.965C0.396,-1.11 0.061,-1.278 0.35,-1.453C0.636,-1.62 0.947,-1.103 1.1,-0.735C1.256,-0.362 1.326,0.228 1.063,0.316C0.749,0.412 0.834,-0.005 0.612,0.085C0.204,0.256 -0.072,0.224 -0.156,0.224C-0.417,0.215 -0.983,-0.225 -1.251,-0.922C-1.694,-2.078 -1.029,-3.084 0,-3.505" style="fill:white;fill-rule:nonzero;"/>
                </g>
                <g transform="matrix(4.16667,0,0,4.16667,909.711,1668.93)">
                    <path d="M0,-1.673C0.042,-1.637 0.283,-1.67 0.391,-1.696C1.207,-1.895 1.368,-1.913 2.5,-2.209C2.673,-2.251 2.953,-2.298 2.935,-2.4C2.926,-2.47 2.69,-2.724 3.213,-2.837C3.392,-2.861 3.383,-2.515 3.897,-0.539C3.97,-0.239 4.111,-0.254 4.124,-0.039C4.145,0.24 3.22,0.538 3.116,0.331C3.012,0.112 3.491,-0.083 3.423,-0.364C3.388,-0.508 3.272,-0.982 3.204,-1.269C3.183,-1.351 3.145,-1.321 2.097,-1.066C2.097,-1.066 2.097,-1.008 2.23,-0.517C2.28,-0.306 2.857,-0.709 2.924,-0.435C3.028,-0.031 2.571,0.074 2.147,0.177C1.741,0.276 1.207,0.413 1.148,0.036C1.095,-0.295 1.77,-0.16 1.713,-0.391C1.648,-0.653 1.58,-0.935 1.58,-0.935L0.257,-0.612C0.264,-0.588 0.376,-0.179 0.415,0.036C0.59,0.952 1.466,0.335 1.468,0.858C1.468,1.188 0.105,1.07 0.056,0.976C-0.053,0.777 0.076,0.767 0,0.448C-0.48,-1.53 -0.65,-1.899 -0.47,-1.943C0.124,-2.087 -0.145,-1.83 0,-1.673" style="fill:white;fill-rule:nonzero;"/>
                </g>
                <g transform="matrix(4.16667,0,0,4.16667,915.102,1677.09)">
                    <path d="M0,4.075C-0.301,4.098 -0.651,4.157 -0.678,3.973C-0.69,3.909 -0.599,3.677 -0.599,3.677L1.538,1.077C1.538,1.077 1.694,0.929 1.504,0.957C1.504,0.957 1.222,0.966 -0.252,1.08C-0.38,1.091 -0.018,1.577 -0.594,1.57C-0.76,1.576 -0.956,0.13 -0.669,0.108C-0.182,0.07 -0.385,0.356 -0.305,0.575C-0.305,0.575 -0.047,0.556 2.348,0.369C2.513,0.357 2.696,0.227 2.73,0.166C2.76,0.119 2.564,-0.168 3.045,-0.167C3.278,-0.166 3.27,0.55 3.276,0.645C3.3,0.773 3.112,0.935 0.869,3.492C0.869,3.492 0.94,3.486 2.989,3.328C2.989,3.328 2.861,2.848 3.316,2.833C3.521,2.816 3.59,4.196 3.431,4.209C2.982,4.243 3.027,3.84 3.027,3.84C0.051,4.071 0,4.075 0,4.075" style="fill:white;fill-rule:nonzero;"/>
                </g>
                <g transform="matrix(4.16667,0,0,4.16667,914.602,1710.87)">
                    <path d="M0,-2.76C0.029,-2.712 0.27,-2.667 0.378,-2.658C1.217,-2.591 1.377,-2.558 2.542,-2.484C2.723,-2.47 3.001,-2.428 3.017,-2.53C3.028,-2.6 2.887,-2.913 3.416,-2.858C3.593,-2.825 3.477,-2.499 3.346,-0.462C3.321,-0.154 3.46,-0.123 3.403,0.084C3.339,0.357 2.365,0.349 2.333,0.121C2.3,-0.12 2.818,-0.155 2.842,-0.444C2.854,-0.591 2.893,-1.077 2.917,-1.372C2.924,-1.455 2.876,-1.439 1.801,-1.526C1.801,-1.526 1.785,-1.469 1.757,-0.963C1.739,-0.745 2.412,-0.948 2.39,-0.666C2.363,-0.25 1.895,-0.294 1.459,-0.33C1.044,-0.362 0.493,-0.401 0.557,-0.776C0.607,-1.107 1.205,-0.769 1.225,-1.006C1.247,-1.274 1.27,-1.563 1.27,-1.563L-0.088,-1.671C-0.09,-1.647 -0.111,-1.222 -0.141,-1.006C-0.26,-0.081 0.764,-0.392 0.601,0.105C0.499,0.417 -0.759,-0.121 -0.776,-0.227C-0.816,-0.448 -0.69,-0.419 -0.664,-0.745C-0.5,-2.774 -0.545,-3.177 -0.361,-3.162C0.248,-3.114 -0.088,-2.954 0,-2.76" style="fill:white;fill-rule:nonzero;"/>
                </g>
                <g transform="matrix(4.16667,0,0,4.16667,926.821,1727.3)">
                    <path d="M0,-1.6L-0.475,0.439C-0.476,0.444 -0.498,0.901 -0.487,0.943C-0.441,1.086 -1.436,1.085 -1.717,1.019C-1.893,0.978 -1.721,0.551 -1.674,0.542C-0.953,0.425 -0.935,0.212 -0.869,-0.134C-0.858,-0.178 -0.911,-0.204 -1.025,-0.231L-3.576,-0.825C-3.656,-0.844 -3.814,-0.881 -3.878,-0.776C-3.925,-0.688 -3.79,-0.499 -4.291,-0.53C-4.507,-0.541 -4.088,-2.454 -3.839,-2.41C-3.357,-2.33 -3.609,-2.099 -3.588,-1.962C-3.565,-1.857 -3.424,-1.844 -3.343,-1.826L-0.772,-1.227C-0.653,-1.199 -0.624,-1.186 -0.608,-1.255C-0.514,-1.601 -0.436,-1.787 -1.032,-2.21C-1.181,-2.304 -1.032,-2.686 -0.864,-2.645C-0.564,-2.576 0.317,-2.14 0.208,-2.04C0.208,-2.04 0.016,-1.663 0,-1.6" style="fill:white;fill-rule:nonzero;"/>
                </g>
                <g transform="matrix(4.16667,0,0,4.16667,919.403,1730.78)">
                    <path d="M0,3.26C-0.445,3.115 -0.216,2.885 -0.192,2.749C-0.189,2.703 -0.282,2.641 -0.422,2.589L-2.763,1.718C-2.912,1.662 -3.1,1.592 -3.148,1.67C-3.213,1.769 -3.204,2.136 -3.645,1.917C-3.815,1.826 -3.144,-0.075 -2.919,-0.012C-2.442,0.104 -2.723,0.451 -2.723,0.527C-2.716,0.618 -2.615,0.642 -2.411,0.718L-0.033,1.603C0.063,1.639 0.186,1.699 0.231,1.647C0.287,1.571 0.242,1.123 0.713,1.347C0.925,1.439 0.221,3.335 0,3.26" style="fill:white;fill-rule:nonzero;"/>
                </g>
                <g transform="matrix(4.16667,0,0,4.16667,910.915,1757.81)">
                    <path d="M0,-3.18C0.596,-2.861 1.655,-1.828 0.937,-0.508C0.537,0.211 0.467,0.081 0.343,0.21C0.314,0.239 0.254,0.41 0.238,0.467C0.18,0.574 -0.323,0.652 -0.787,0.373C-0.934,0.296 -1.03,0.145 -1.015,-0.007C-0.992,-0.452 -0.849,-0.616 -0.512,-0.511C-0.214,-0.429 0.161,-0.508 0.299,-0.884C0.506,-1.444 0.155,-1.924 -0.498,-2.172C-1.166,-2.42 -1.975,-2.257 -2.175,-1.809C-2.272,-1.578 -2.331,-1.261 -2.254,-1.047C-2.117,-0.671 -2.094,-0.645 -2.232,-0.448C-2.408,-0.214 -3.121,-0.957 -3.058,-1.076C-2.972,-1.241 -3.058,-1.365 -3.055,-1.372C-3.058,-1.628 -3.035,-2.006 -2.8,-2.455C-2.094,-3.832 -0.617,-3.509 0,-3.18" style="fill:white;fill-rule:nonzero;"/>
                </g>
                <g transform="matrix(4.16667,0,0,4.16667,893.467,1770.69)">
                    <path d="M0,-2.212C-0.196,-2.029 -0.134,-1.8 0.051,-1.604C0.342,-1.283 0.653,-1.374 1.04,-1.68C1.659,-2.161 2.214,-2.184 2.817,-1.614C3.271,-1.189 3.36,-0.491 2.902,0.106C2.776,0.268 2.699,0.332 2.487,0.448C2.384,0.515 2.314,0.647 2.196,0.775C1.978,0.99 1.002,0.694 1.132,0.417C1.234,0.198 1.602,0.02 1.949,0.042C2.33,0.064 2.379,-0.035 2.496,-0.188C2.562,-0.276 2.531,-0.496 2.33,-0.722C2.048,-1.054 1.559,-0.797 1.326,-0.552C0.876,-0.071 0.333,0.043 -0.229,-0.341C-0.995,-0.862 -1.02,-1.691 -0.463,-2.428C0.121,-3.202 0.385,-3.162 0.483,-3.154C0.739,-3.144 1.659,-2.675 1.541,-2.513C1.227,-2.076 0.744,-2.934 0,-2.212" style="fill:white;fill-rule:nonzero;"/>
                </g>
                <g transform="matrix(4.16667,0,0,4.16667,763.106,1697.26)">
                    <path d="M0,0.14C-0.141,0.422 -0.141,1.219 -0.141,1.219C-0.141,1.219 -0.985,0.75 -1.266,0.609C-1.547,0.469 -2.016,0.421 -2.016,0.421C-2.016,0.421 -1.735,-0.094 -1.642,-0.328C-1.547,-0.563 -1.454,-1.36 -1.454,-1.36C-1.454,-1.36 -0.937,-1.079 -0.609,-0.891C-0.281,-0.704 0.374,-0.657 0.374,-0.657C0.374,-0.657 0.14,-0.14 0,0.14M5.532,-7.642C5.532,-7.642 5.766,-9.939 3.938,-9.939C2.344,-9.939 2.437,-7.969 2.437,-7.969C2.437,-7.969 2.671,3.562 2.391,3.516C2.109,3.469 1.219,1.499 1.266,1.265C1.312,1.031 1.687,0.375 1.687,-0.14C1.687,-0.657 0.984,-0.938 0.984,-0.938C0.984,-0.938 1.219,-1.172 1.219,-1.593C1.219,-2.016 0.468,-2.297 0.093,-2.297C-0.281,-2.297 -0.937,-2.861 -1.313,-3.423C-1.688,-3.985 -3.845,-8.204 -4.454,-9.048C-5.063,-9.892 -5.814,-10.032 -6.61,-9.33C-7.407,-8.626 -7.407,-6.282 -7.407,-6.282L-7.407,8.672C-7.407,8.672 -7.126,10.102 -5.977,10.102C-4.36,10.102 -4.266,8.391 -4.266,8.391L-4.266,-4.032C-3.798,-4.125 -2.813,-1.829 -2.86,-1.407C-2.907,-0.985 -3.516,-0.47 -3.423,0.046C-3.329,0.562 -2.532,0.844 -2.532,0.844C-2.532,0.844 -2.907,1.219 -2.767,1.64C-2.626,2.063 -1.829,2.249 -1.501,2.249C-1.172,2.249 -0.563,2.719 -0.281,3.141C0,3.562 2.624,8.953 3.281,9.563C3.938,10.172 4.547,10.126 5.062,9.563C5.578,9.001 5.719,7.219 5.719,7.219L5.532,-7.642Z" style="fill:rgb(66,77,153);fill-rule:nonzero;"/>
                </g>
                <g transform="matrix(4.16667,0,0,4.16667,817.407,1694.13)">
                    <path d="M0,1.594C-0.375,1.922 -0.657,2.672 -0.657,2.672C-0.657,2.672 -1.219,1.734 -1.547,1.359C-1.875,0.984 -2.344,0.75 -2.344,0.75C-2.344,0.75 -1.828,0.328 -1.36,-0.047C-0.891,-0.422 -0.657,-1.406 -0.657,-1.406C-0.657,-1.406 -0.187,-0.562 0.046,-0.141C0.281,0.281 1.031,0.75 1.031,0.75C1.031,0.75 0.375,1.266 0,1.594M3.282,0.797C3.282,0.797 3.797,0.281 3.797,-0.422C3.797,-1.125 3.047,-1.359 2.532,-1.359C2.015,-1.359 1.265,-1.829 1.172,-2.438C1.078,-3.047 0.89,-6.704 0.937,-7.266C0.984,-7.828 0.469,-9.844 -0.61,-9.844C-1.36,-9.844 -2.25,-8.297 -2.25,-7.453C-2.25,-6.61 -2.203,-2.531 -2.484,-2.156C-2.766,-1.781 -2.954,-1.359 -3.469,-1.313C-3.985,-1.265 -5.016,-1.406 -5.11,-0.422C-5.204,0.563 -4.688,0.657 -4.688,0.657C-4.688,0.657 -5.063,1.313 -5.063,1.922C-5.063,2.531 -4.36,2.766 -4.032,2.813C-3.704,2.86 -2.92,2.726 -2.625,3.235C-2.11,4.125 -2.203,5.11 -2.203,6C-2.203,6.892 -2.25,9.564 -1.922,10.173C-1.594,10.783 -0.891,11.438 -0.562,11.438C-0.234,11.438 0.516,10.783 0.797,9.844C1.078,8.906 1.031,4.359 1.078,3.938C1.125,3.516 1.312,3.141 1.969,2.953C2.625,2.766 3.588,2.863 3.75,1.734C3.844,1.078 3.282,0.797 3.282,0.797" style="fill:rgb(66,77,153);fill-rule:nonzero;"/>
                </g>
                <g transform="matrix(4.16667,0,0,4.16667,859.206,1690.81)">
                    <path d="M0,2.486C-0.282,2.814 -0.517,3.517 -0.517,3.517C-0.517,3.517 -1.172,2.486 -1.406,2.205C-1.642,1.924 -2.109,1.501 -2.109,1.501C-2.109,1.501 -1.642,1.079 -1.267,0.799C-0.892,0.516 -0.517,-0.421 -0.517,-0.421C-0.517,-0.421 -0.142,0.377 0.095,0.751C0.328,1.126 1.078,1.549 1.078,1.549C1.078,1.549 0.28,2.158 0,2.486M9.048,1.079C8.157,0.986 6.048,1.221 6.048,1.221C6.048,1.221 4.829,1.408 4.924,2.58C5.017,3.752 6.516,3.423 6.798,3.798C7.078,4.174 7.481,5.951 6.564,7.127C5.391,8.628 3.656,9.049 2.202,7.877C0.75,6.706 0.845,4.83 1.22,4.22C1.595,3.611 2.157,3.658 2.672,3.611C3.188,3.564 3.656,3.189 3.704,2.673C3.751,2.157 3.14,1.642 3.14,1.642C3.14,1.642 3.855,1.125 3.797,0.377C3.751,-0.233 2.767,-0.514 2.484,-0.514C2.202,-0.514 1.405,-0.656 1.267,-1.546C1.125,-2.436 0.984,-3.89 2.297,-4.827C3.609,-5.765 5.317,-5.546 6.235,-4.452C7.453,-2.999 7.033,-1.546 7.314,-1.217C7.594,-0.889 8.063,-0.327 9.048,-0.561C10.032,-0.796 10.407,-1.733 10.267,-2.624C10.125,-3.515 9.61,-6.703 6.516,-8.061C3.422,-9.422 -0.02,-7.712 -1.219,-5.765C-2.719,-3.328 -1.969,-1.78 -2.249,-1.358C-2.531,-0.937 -2.672,-0.467 -3.609,-0.467C-4.548,-0.467 -4.923,0.048 -4.971,0.564C-5.024,1.171 -4.358,1.689 -4.358,1.689C-4.358,1.689 -4.828,2.157 -4.828,2.814C-4.828,3.47 -4.219,3.611 -3.844,3.611C-3.469,3.611 -2.672,3.517 -2.344,4.268C-2.017,5.017 -2.017,6.706 -1.874,7.173C-1.734,7.643 -0.702,10.127 1.405,11.018C3.517,11.908 5.766,11.534 6.703,11.065C7.641,10.596 10.172,8.628 10.267,5.908C10.359,3.189 10.419,1.223 9.048,1.079" style="fill:rgb(66,77,153);fill-rule:nonzero;"/>
                </g>
                <g transform="matrix(4.16667,0,0,4.16667,876.959,1704.96)">
                    <path d="M0,5.139L0.002,5.139C0.095,5.129 0.189,5.114 0.282,5.094C0.849,3.58 1.274,1.911 1.5,0.083L1.498,0.082C1.418,0.06 1.339,0.033 1.262,0.001L1.262,0C1.034,1.882 0.591,3.592 0,5.139" style="fill:rgb(158,157,108);fill-rule:nonzero;"/>
                </g>
                <g transform="matrix(4.16667,0,0,4.16667,881.049,1695.94)">
                    <path d="M0,-6.416C-0.091,-6.456 -0.184,-6.491 -0.278,-6.519C-0.28,-6.519 -0.28,-6.52 -0.28,-6.52C0.183,-4.787 0.454,-2.86 0.454,-0.723C0.454,-0.444 0.448,-0.169 0.437,0.104L0.439,0.104C0.483,0.084 0.525,0.068 0.566,0.054C0.573,0.051 0.578,0.05 0.585,0.047C0.622,0.034 0.659,0.023 0.686,0.016C0.693,-0.228 0.699,-0.474 0.699,-0.723C0.699,-2.816 0.441,-4.706 0,-6.416" style="fill:rgb(158,157,108);fill-rule:nonzero;"/>
                </g>
                <g transform="matrix(4.16667,0,0,4.16667,855.617,1702.72)">
                    <path d="M0,-2.575C-0.076,-2.446 -0.158,-2.322 -0.244,-2.22C-0.247,-1.574 -0.269,-0.945 -0.306,-0.33C-0.3,-0.322 -0.295,-0.313 -0.288,-0.304C-0.262,-0.266 -0.233,-0.225 -0.205,-0.183C-0.198,-0.173 -0.191,-0.163 -0.185,-0.153C-0.151,-0.102 -0.116,-0.051 -0.081,0C-0.026,-0.76 0.003,-1.543 0.003,-2.351C0.003,-2.426 0,-2.501 0,-2.575" style="fill:rgb(158,157,108);fill-rule:nonzero;"/>
                </g>
                <g transform="matrix(4.16667,0,0,4.16667,813.664,1702.38)">
                    <path d="M0,-2.693L0,0.303C0.141,0.525 0.242,0.693 0.242,0.693C0.242,0.693 0.244,0.688 0.246,0.681L0.246,-3.378L0.242,-3.386C0.242,-3.386 0.161,-3.048 0,-2.693" style="fill:rgb(158,157,108);fill-rule:nonzero;"/>
                </g>
                <g transform="matrix(4.16667,0,0,4.16667,760.134,1700.61)">
                    <path d="M0,-1.755C-0.079,-1.799 -0.163,-1.847 -0.246,-1.893C-0.247,-1.877 -0.248,-1.861 -0.248,-1.845C-0.248,-1.215 -0.224,-0.601 -0.184,-0.001C-0.1,0.043 -0.013,0.092 0.072,0.138C0.028,-0.477 0.002,-1.107 0,-1.755" style="fill:rgb(158,157,108);fill-rule:nonzero;"/>
                </g>
                <g transform="matrix(4.16667,0,0,4.16667,773.496,1707.69)">
                    <path d="M0,-7.031C-0.119,-5.929 -0.185,-4.767 -0.185,-3.544C-0.185,-2.307 -0.117,-1.127 0.004,0C0.057,-1.558 0.033,-4.619 0,-7.031" style="fill:rgb(158,157,108);fill-rule:nonzero;"/>
                </g>
                <g transform="matrix(4.16667,0,0,4.16667,854.84,1619.37)">
                    <path d="M0,36.244C-2.363,37.681 -4.742,38.525 -6.561,39.013C-6.604,38.917 -6.724,38.813 -6.896,38.707C-5.352,37.952 -3.352,36.803 -1.366,35.176C0.521,33.628 2.588,31.477 4.194,28.632C4.107,28.62 4.02,28.607 3.934,28.592L3.932,28.592C2.352,31.365 0.331,33.464 -1.517,34.98C-3.557,36.653 -5.61,37.817 -7.162,38.564C-7.229,38.532 -7.3,38.5 -7.373,38.468C-6.171,37.63 -4.639,36.407 -3.118,34.761C-1.536,33.047 0.207,30.678 1.502,27.609C1.432,27.558 1.365,27.506 1.301,27.451C0.02,30.516 -1.717,32.88 -3.292,34.587C-4.861,36.285 -6.438,37.528 -7.648,38.359C-7.726,38.33 -7.806,38.303 -7.887,38.276C-6.992,37.377 -5.861,36.097 -4.741,34.429C-3.255,32.223 -1.582,29.021 -0.616,24.851C-0.636,24.813 -0.651,24.775 -0.665,24.739C-0.667,24.737 -0.669,24.735 -0.669,24.732C-0.684,24.7 -0.697,24.667 -0.709,24.637C-0.711,24.633 -0.713,24.63 -0.715,24.625C-0.727,24.595 -0.737,24.568 -0.748,24.541C-0.749,24.54 -0.749,24.537 -0.749,24.535C-0.762,24.507 -0.772,24.48 -0.781,24.455C-1.724,28.751 -3.429,32.038 -4.937,34.283C-6.091,35.999 -7.252,37.301 -8.153,38.195C-8.273,38.16 -8.395,38.129 -8.515,38.102C-6.809,35.242 -3.718,29.03 -3.074,20.73C-3.155,20.715 -3.237,20.691 -3.314,20.659C-3.952,29.012 -7.083,35.242 -8.77,38.049C-8.872,38.03 -8.975,38.014 -9.072,38.002C-8.149,34.871 -6.384,28.059 -5.979,20.655C-6.061,20.685 -6.143,20.711 -6.229,20.732C-6.645,28.116 -8.411,34.896 -9.322,37.98C-9.37,37.977 -9.416,37.976 -9.461,37.976L-9.636,37.976L-9.636,29.367C-9.709,29.347 -9.792,29.307 -9.882,29.25L-9.882,37.976L-10.058,37.976C-10.102,37.976 -10.148,37.977 -10.196,37.98C-11.109,34.889 -12.88,28.09 -13.291,20.69C-13.373,20.663 -13.458,20.629 -13.542,20.586C-13.145,28.016 -11.371,34.862 -10.446,38.002C-10.544,38.014 -10.645,38.03 -10.748,38.049C-12.631,34.914 -16.319,27.514 -16.319,17.653C-16.319,7.807 -12.642,1.022 -10.759,-1.806C-10.653,-1.786 -10.548,-1.77 -10.448,-1.758C-11.459,1.383 -13.481,8.633 -13.616,16.794C-13.538,16.757 -13.455,16.729 -13.369,16.709C-13.22,8.567 -11.194,1.348 -10.196,-1.736C-10.148,-1.733 -10.102,-1.732 -10.058,-1.732L-9.882,-1.732L-9.882,8.168C-9.8,8.129 -9.717,8.109 -9.636,8.104L-9.636,-1.732L-9.461,-1.732C-9.416,-1.732 -9.369,-1.733 -9.321,-1.736C-8.328,1.335 -6.315,8.508 -6.152,16.608C-6.07,16.622 -5.986,16.642 -5.904,16.668C-6.059,8.558 -8.063,1.366 -9.07,-1.758C-8.969,-1.77 -8.865,-1.787 -8.759,-1.806C-6.932,0.938 -3.416,7.408 -3.209,16.783C-3.171,16.769 -3.132,16.757 -3.094,16.746C-3.092,16.746 -3.09,16.745 -3.09,16.745C-3.05,16.734 -3.008,16.724 -2.964,16.715C-3.184,7.409 -6.645,0.952 -8.501,-1.861C-8.377,-1.889 -8.253,-1.921 -8.13,-1.957C-7.232,-1.164 -6.08,0.002 -4.934,1.579C-3.292,3.837 -1.419,7.302 -0.55,12.072C-0.494,11.955 -0.433,11.837 -0.366,11.717L-0.366,11.715C-1.267,7.055 -3.118,3.658 -4.742,1.425C-5.85,-0.099 -6.965,-1.244 -7.857,-2.042C-7.778,-2.068 -7.702,-2.095 -7.627,-2.122C-6.419,-1.394 -4.849,-0.286 -3.288,1.274C-1.461,3.099 0.58,5.792 1.88,9.5C1.952,9.46 2.024,9.42 2.1,9.381C0.782,5.648 -1.276,2.933 -3.122,1.093C-4.628,-0.412 -6.145,-1.501 -7.343,-2.238C-7.273,-2.267 -7.208,-2.297 -7.145,-2.327C-5.595,-1.683 -3.548,-0.657 -1.512,0.879C0.708,2.552 3.177,5.053 4.832,8.608C4.922,8.602 5.011,8.599 5.101,8.597C3.426,4.946 0.898,2.386 -1.371,0.677C-3.346,-0.811 -5.33,-1.825 -6.872,-2.479C-6.701,-2.586 -6.585,-2.693 -6.552,-2.789C-4.733,-2.403 -2.356,-1.693 0.006,-0.388C2.835,1.175 5.088,3.269 6.703,5.841C7.429,6.994 8.024,8.248 8.492,9.592C8.605,9.669 8.717,9.746 8.821,9.829C6.991,4.32 3.333,1.167 0.116,-0.608C-2.913,-2.279 -5.968,-2.985 -7.86,-3.28C-9.067,-3.586 -9.759,-4.067 -9.759,-4.067C-9.759,-4.067 -10.451,-3.586 -11.658,-3.28C-13.55,-2.985 -16.605,-2.279 -19.634,-0.608C-22.685,1.075 -26.13,3.998 -28.039,8.993C-27.946,8.957 -27.855,8.935 -27.764,8.923C-27.339,7.83 -26.826,6.801 -26.223,5.841C-24.606,3.269 -22.352,1.175 -19.523,-0.388C-17.162,-1.693 -14.785,-2.402 -12.966,-2.789C-12.933,-2.693 -12.817,-2.586 -12.646,-2.479C-14.188,-1.825 -16.173,-0.811 -18.147,0.677C-20.911,2.76 -24.058,6.106 -25.582,11.147C-25.527,11.247 -25.471,11.348 -25.414,11.453C-23.936,6.344 -20.776,2.967 -18.006,0.879C-15.971,-0.657 -13.923,-1.683 -12.373,-2.327C-12.311,-2.297 -12.244,-2.266 -12.176,-2.238C-13.373,-1.501 -14.89,-0.412 -16.396,1.093C-19.164,3.855 -22.421,8.586 -22.911,15.781C-22.836,15.859 -22.758,15.932 -22.68,15.998C-22.242,8.77 -18.99,4.032 -16.23,1.274C-14.669,-0.286 -13.099,-1.394 -11.891,-2.122C-11.815,-2.095 -11.74,-2.068 -11.662,-2.042C-12.552,-1.243 -13.667,-0.099 -14.776,1.425C-16.039,3.16 -17.439,5.6 -18.423,8.791C-18.34,8.773 -18.25,8.762 -18.154,8.758C-17.183,5.656 -15.818,3.276 -14.584,1.579C-13.438,0.002 -12.286,-1.164 -11.388,-1.957C-11.265,-1.921 -11.141,-1.889 -11.017,-1.861C-12.726,0.729 -15.792,6.409 -16.44,14.554L-16.35,21.775C-15.54,29.551 -12.637,35.364 -11.003,38.102C-11.124,38.129 -11.245,38.16 -11.366,38.195C-12.267,37.301 -13.427,35.999 -14.581,34.283C-15.556,32.833 -16.613,30.949 -17.493,28.638C-17.573,28.667 -17.653,28.685 -17.735,28.691C-16.844,31.041 -15.769,32.957 -14.779,34.429C-13.657,36.097 -12.527,37.377 -11.632,38.276C-11.712,38.303 -11.792,38.33 -11.87,38.359C-13.08,37.528 -14.657,36.285 -16.226,34.587C-18.681,31.928 -21.522,27.672 -22.433,21.658C-22.518,21.555 -22.62,21.454 -22.726,21.362C-21.862,27.618 -18.927,32.025 -16.4,34.761C-14.878,36.407 -13.347,37.63 -12.145,38.468C-12.219,38.5 -12.289,38.531 -12.356,38.564C-13.908,37.816 -15.961,36.653 -18.002,34.98C-21.77,31.889 -26.262,26.375 -26.262,17.653C-26.262,16.631 -26.197,15.659 -26.083,14.733C-26.156,14.677 -26.223,14.65 -26.282,14.661L-26.282,20.961C-25.325,27.896 -21.463,32.461 -18.151,35.176C-16.164,36.803 -14.167,37.952 -12.622,38.707C-12.794,38.813 -12.914,38.917 -12.958,39.013C-14.777,38.525 -17.155,37.681 -19.519,36.244C-22.084,34.684 -24.932,32.218 -26.885,28.403C-26.945,28.457 -27.012,28.508 -27.085,28.553C-25.108,32.396 -22.231,34.885 -19.639,36.459C-16.274,38.503 -12.879,39.359 -11.08,39.694C-10.232,39.98 -9.759,40.311 -9.759,40.311C-9.759,40.311 -9.287,39.98 -8.439,39.694C-6.641,39.359 -3.244,38.503 0.121,36.459C2.79,34.838 5.761,32.253 7.739,28.215C7.638,28.265 7.519,28.314 7.387,28.361C5.435,32.199 2.576,34.678 0,36.244" style="fill:rgb(158,157,108);fill-rule:nonzero;"/>
                </g>
                <g transform="matrix(4.16667,0,0,4.16667,731.864,1692.94)">
                    <path d="M0,-0.005C0,0.785 0.033,1.543 0.091,2.278L0.091,-2.283C0.033,-1.552 0,-0.796 0,-0.005" style="fill:rgb(158,157,108);fill-rule:nonzero;"/>
                </g>
                <g transform="matrix(4.16667,0,0,4.16667,867.267,1688.64)">
                    <path d="M0,-3.997C-0.037,-3.96 -0.072,-3.922 -0.107,-3.884C-0.141,-3.844 -0.176,-3.805 -0.207,-3.764C0.012,-2.603 0.155,-1.365 0.206,-0.045C0.3,-0.021 0.384,-0.007 0.455,0C0.402,-1.423 0.243,-2.756 0.002,-3.997L0,-3.997Z" style="fill:rgb(158,157,108);fill-rule:nonzero;"/>
                </g>
                <g transform="matrix(4.16667,0,0,4.16667,867.45,1720.6)">
                    <path d="M0,-3.467C-0.135,-2.336 -0.337,-1.263 -0.593,-0.25C-0.556,-0.182 -0.514,-0.115 -0.47,-0.05C-0.45,-0.02 -0.433,0.009 -0.414,0.039C-0.121,-1.072 0.106,-2.252 0.252,-3.506C0.168,-3.497 0.082,-3.486 0,-3.467" style="fill:rgb(158,157,108);fill-rule:nonzero;"/>
                </g>
                <g transform="matrix(4.16667,0,0,4.16667,895.774,1695.17)">
                    <path d="M0,-1.564C-0.032,-1.561 -0.063,-1.558 -0.093,-1.556C-0.083,-1.22 -0.075,-0.882 -0.075,-0.54C-0.075,-0.353 -0.079,-0.172 -0.085,0.012C0.005,0.014 0.086,0.018 0.163,0.022C0.166,-0.165 0.171,-0.35 0.171,-0.54C0.171,-0.895 0.164,-1.243 0.152,-1.586C0.113,-1.579 0.075,-1.573 0.038,-1.568C0.024,-1.567 0.012,-1.565 0,-1.564" style="fill:rgb(158,157,108);fill-rule:nonzero;"/>
                </g>
            </g>
        </g>
    </g>
</svg>
